<svg xmlns:mydata="http://www.w3.org/2000/svg" mydata:contrastcolor="F0E87B" mydata:template="blackMagicHex1" mydata:presentation="2.5" mydata:layouttype="" mydata:specialfontid="" mydata:id1="222" mydata:id2="222" mydata:companyname="YAVG" mydata:companytagline="" version="1.1" xmlns="http://www.w3.org/2000/svg" xmlns:xlink="http://www.w3.org/1999/xlink" viewBox="0 0 550 470" class="done"><g fill="none" fill-rule="nonzero" stroke="none" stroke-width="1" stroke-linecap="butt" stroke-linejoin="miter" stroke-miterlimit="10" stroke-dasharray="" stroke-dashoffset="0" font-family="none" font-weight="none" font-size="none" text-anchor="none" style="mix-blend-mode: normal"><g><g><path d="M129.79061,170.29898l2.1537,36.44731h1.15969l15.2416,-36.44731h34.79061l-41.74873,75.37966l-0.63535,3.72445h-31.47722l0.63535,-3.72445l-14.91026,-75.37966zM200.86286,170.29898h48.70686l5.56893,79.10411h-87.5628zM218.75518,202.10754l-11.59687,28.99218h13.25357v-28.99218zM334.55821,170.29898h33.29959l-32.52761,79.10411l-57.55243,0l-4.68296,-79.10411h34.95628v65.77082h1.49103zM417.22734,243.35926l0.82835,-4.47308h-7.95214l4.47308,-25.34745h37.93833l-6.33532,35.86435h-33.35017c0.2982,-0.10103 0.57686,-0.21044 0.83598,-0.32823c1.82237,-0.82835 3.00966,-2.73355 3.5619,-5.7156zM363.71606,243.19359c0,-4.74919 0.77312,-11.76254 2.31937,-21.04004c3.31339,-19.21767 9.16705,-33.07869 17.56098,-41.58306c8.39393,-8.50437 22.31017,-12.75656 41.74873,-12.75656c4.08652,0 9.30511,0.44179 15.65578,1.32536c6.35067,0.88357 11.01703,1.87759 13.99908,2.98205l-9.11183,25.34745c-8.28348,-1.54625 -15.87667,-2.31937 -22.77957,-2.31937c-6.9029,0 -11.84538,0.55223 -14.82743,1.6567c-2.98205,1.10446 -4.74919,3.31339 -5.30143,6.62678l-7.9595,45.97019h-30.96628c-0.22527,-1.9603 -0.33791,-4.03013 -0.33791,-6.2095z" fill="#4080a9"></path><path d="M136.58306,299.70102h-31.47722l4.16907,-24.43938h31.47722zM190.42568,299.70102h-33.13392l10.28409,-24.43938h87.5628l1.72053,24.43938h-33.29959l-0.66268,-16.40129h-26.01012l-6.46111,16.40129M325.28072,299.70102h-46.05614l-1.44681,-24.43938h57.55243zM442.74045,294.73093c-13.47446,4.97009 -27.00414,7.45513 -40.58905,7.45513c-13.58491,0 -23.38702,-2.70594 -29.40635,-8.11781c-4.85486,-4.36492 -7.75189,-10.63379 -8.69109,-18.80661h30.96628l-0.15831,0.9143h10.43718c3.22123,0 5.73134,-0.30477 7.53034,-0.9143l33.35017,0z" fill="#ffffff"></path><path d="M105.10584,264.87205v-4.6176h341.07379v4.6176z" fill="#4080a9"></path></g></g></g></svg>